<svg width="20" height="20" viewBox="0 0 20 20" fill="none" xmlns="http://www.w3.org/2000/svg">
<g clip-path="url(#clip0_1154_6272)">
<path d="M18.2049 18.479L14.1374 17.2679L11.0701 19.1015L8.92992 19.1006L5.86072 17.2679L1.7951 18.479L0.55835 14.3041L1.7951 9.67053L0.55835 5.75303L1.7951 0.897697L8.14794 4.69323H11.8519L18.2049 0.897697L19.4417 5.75303L18.2049 9.67053L19.4417 14.3041L18.2049 18.479Z" fill="#FF5C16"/>
<path d="M1.7959 0.897697L8.14887 4.6959L7.89626 7.30258L1.7959 0.897697ZM5.86165 14.3058L8.65689 16.4352L5.86165 17.2679V14.3058ZM8.4335 10.7854L7.89626 7.30431L4.45743 9.6716L4.45556 9.67066V9.6724L4.46623 12.1091L5.86072 10.7856L8.4335 10.7854ZM18.2049 0.897697L11.8519 4.6959L12.1037 7.30258L18.2049 0.897697ZM14.1393 14.3058L11.3439 16.4352L14.1393 17.2679V14.3058ZM15.5443 9.67227V9.67053L15.5435 9.67146L12.1047 7.30431L11.5674 10.7854H14.1391L15.5346 12.1088L15.5443 9.67227Z" fill="#FF5C16"/>
<path d="M5.86072 17.2679L1.7951 18.479L0.55835 14.3058H5.86072V17.2679ZM8.43258 10.7845L9.20922 15.8172L8.13286 13.0189L4.4645 12.1088L5.85979 10.7846H8.43258V10.7845ZM14.1391 17.2679L18.2049 18.479L19.4417 14.3058H14.1391V17.2679ZM11.5674 10.7845L10.7908 15.8172L11.867 13.0189L15.5355 12.1088L14.1393 10.7846H11.5674V10.7845Z" fill="#E34807"/>
<path d="M0.55835 14.3041L1.7951 9.67053H4.45463L4.46437 12.108L8.13299 13.0181L9.20922 15.8163L8.65596 16.4325L5.86072 14.3031H0.55835V14.3041ZM19.4417 14.3041L18.2049 9.67053H15.5452L15.5355 12.108L11.8671 13.0181L10.7908 15.8163L11.3439 16.4325L14.1393 14.3031H19.4417V14.3041ZM11.8519 4.69323H8.14794L7.8964 7.29991L9.20935 15.8136H10.7908L12.1045 7.29991L11.8519 4.69323Z" fill="#FF8D5D"/>
<path d="M1.7951 0.897697L0.55835 5.75303L1.7951 9.67053H4.45463L7.89533 7.30258L1.7951 0.897697ZM7.66394 11.7954H6.45908L5.80307 12.4384L8.1338 13.0162L7.66394 11.7945V11.7954ZM18.2049 0.897697L19.4417 5.75303L18.2049 9.67053H15.5452L12.1047 7.30258L18.2049 0.897697ZM12.3378 11.7954H13.5444L14.2004 12.4392L11.867 13.0181L12.3378 11.7944V11.7954ZM11.0691 17.4407L11.344 16.4342L10.7908 15.818H9.20815L8.65503 16.4342L8.92978 17.4407" fill="#661800"/>
<path d="M11.069 17.4405V19.1023H8.92981V17.4405H11.069Z" fill="#C0C4CD"/>
<path d="M5.86169 17.2661L8.93169 19.1015V17.4397L8.6568 16.4334L5.86169 17.2661ZM14.1393 17.2661L11.0692 19.1015V17.4397L11.3441 16.4334L14.1393 17.2661Z" fill="#E7EBF6"/>
</g>
<defs>
<clipPath id="clip0_1154_6272">
<rect width="20" height="20" fill="white"/>
</clipPath>
</defs>
</svg>
