<svg xmlns="http://www.w3.org/2000/svg" width="22" height="22" fill="none" viewBox="0 0 22 22">
  <path fill="#000" d="M.2 5A4.8 4.8 0 0 1 5 .2h12A4.8 4.8 0 0 1 21.8 5v12a4.8 4.8 0 0 1-4.8 4.8H5A4.8 4.8 0 0 1 .2 17V5Z"/>
  <path fill="#fff" fill-rule="evenodd" d="M8.59 4.622H4.905a.283.283 0 0 0-.283.283V8.59c0 .157.127.284.283.284H8.59a.283.283 0 0 0 .284-.284V4.905a.283.283 0 0 0-.284-.283Zm4.254 4.252H9.16a.284.284 0 0 0-.283.283v3.686c0 .156.127.283.283.283h3.685a.283.283 0 0 0 .284-.283V9.157a.283.283 0 0 0-.284-.283Zm.566-4.252h3.685c.156 0 .283.127.283.283V8.59a.283.283 0 0 1-.283.284H13.41a.283.283 0 0 1-.284-.284V4.905c0-.156.127-.283.284-.283Zm-4.82 8.504H4.905a.283.283 0 0 0-.283.284v3.685c0 .156.127.283.283.283H8.59a.283.283 0 0 0 .284-.283V13.41a.283.283 0 0 0-.284-.284Zm4.82 0h3.685c.156 0 .283.127.283.284v3.685a.283.283 0 0 1-.283.283H13.41a.283.283 0 0 1-.284-.283V13.41c0-.157.127-.284.284-.284Z" clip-rule="evenodd"/>
</svg>
