<svg width="20" height="20" viewBox="0 0 20 20" fill="none" xmlns="http://www.w3.org/2000/svg">
<g clip-path="url(#clip0_10228_145)">
<path d="M10.0683 19.1642C10.2783 19.1642 10.4486 19.3326 10.4486 19.5403C10.4486 19.748 10.2783 19.9164 10.0683 19.9164C9.85832 19.9164 9.68804 19.748 9.68804 19.5403C9.68804 19.3326 9.85832 19.1642 10.0683 19.1642ZM9.6552 1.1979C9.84104 1.21324 9.99112 1.35406 10.0163 1.53662L10.4686 4.82292C10.6205 5.90864 11.93 6.37908 12.7383 5.64128L17.2699 1.51665C17.3792 1.41716 17.5495 1.42405 17.6502 1.53205C17.7426 1.63114 17.7454 1.78284 17.6566 1.88516L13.705 6.44348C12.9775 7.28116 13.5143 8.5892 14.6232 8.6826L18.11 9.01872C18.2836 9.03544 18.4106 9.18808 18.3937 9.35968C18.3797 9.50116 18.2707 9.61548 18.1286 9.63764L14.4648 10.2097C13.4011 10.3547 12.9194 11.6144 13.6112 12.4328L14.8992 13.9512C15.003 14.0735 14.9868 14.2558 14.8629 14.3583C14.758 14.4452 14.6062 14.4486 14.4974 14.3664L12.9096 13.1673C12.0528 12.523 10.8178 13.0706 10.7272 14.137L10.3773 18.2961C10.3628 18.4679 10.2102 18.5956 10.0363 18.5813C9.88872 18.5692 9.76948 18.4574 9.74948 18.3124L9.19464 14.295C9.04596 13.2092 7.73648 12.7388 6.92492 13.4766L2.10414 17.8662C2.00435 17.957 1.8489 17.9508 1.75694 17.8522C1.67256 17.7617 1.67 17.6232 1.75097 17.5298L5.95824 12.6744C6.68572 11.8367 6.1522 10.5286 5.0432 10.4353L1.55571 10.0991C1.38206 10.0824 1.25502 9.92968 1.27197 9.75812C1.28594 9.61664 1.39492 9.50236 1.53705 9.48012L5.1984 8.90816C6.26216 8.76316 6.74712 7.50348 6.05524 6.68512L5.17844 5.65148C5.04976 5.4998 5.06992 5.27376 5.22348 5.14664C5.3536 5.03888 5.542 5.03476 5.67684 5.13668L6.75356 5.95056C7.6104 6.59492 8.84544 6.04724 8.936 4.98084L9.22564 1.55685C9.24392 1.34053 9.43624 1.17982 9.6552 1.1979ZM0.380268 9.37376C0.590284 9.37376 0.760536 9.54216 0.760536 9.74988C0.760536 9.9576 0.590284 10.126 0.380268 10.126C0.170252 10.126 0 9.9576 0 9.74988C0 9.54216 0.170252 9.37376 0.380268 9.37376ZM19.4522 8.99188C19.6622 8.99188 19.8324 9.16028 19.8324 9.368C19.8324 9.57572 19.6622 9.74408 19.4522 9.74408C19.2422 9.74408 19.0719 9.57572 19.0719 9.368C19.0719 9.16028 19.2422 8.99188 19.4522 8.99188ZM9.60032 0C9.81032 0 9.98056 0.168389 9.98056 0.376108C9.98056 0.583828 9.81032 0.752216 9.60032 0.752216C9.39028 0.752216 9.22004 0.583828 9.22004 0.376108C9.22004 0.168389 9.39028 0 9.60032 0Z" fill="url(#paint0_linear_10228_145)"/>
<path d="M9.82841 13.1117C11.8122 13.1117 13.4205 11.5211 13.4205 9.55892C13.4205 7.5968 11.8122 6.00616 9.82841 6.00616C7.84457 6.00616 6.23633 7.5968 6.23633 9.55892C6.23633 11.5211 7.84457 13.1117 9.82841 13.1117Z" fill="url(#paint1_radial_10228_145)"/>
</g>
<defs>
<linearGradient id="paint0_linear_10228_145" x1="2.59134" y1="3.168" x2="13.9643" y2="13.4637" gradientUnits="userSpaceOnUse">
<stop stop-color="#FFC10B"/>
<stop offset="1" stop-color="#FB3F2E"/>
</linearGradient>
<radialGradient id="paint1_radial_10228_145" cx="0" cy="0" r="1" gradientUnits="userSpaceOnUse" gradientTransform="translate(9.00809 8.24732) rotate(67.5196) scale(5.2224 5.27316)">
<stop stop-color="#FFC10B"/>
<stop offset="1" stop-color="#FB3F2E"/>
</radialGradient>
<clipPath id="clip0_10228_145">
<rect width="20" height="20" fill="white"/>
</clipPath>
</defs>
</svg>
