<svg width="20" height="20" viewBox="0 0 20 20" fill="none" xmlns="http://www.w3.org/2000/svg">
<g clip-path="url(#clip0_8388_5840)">
<g clip-path="url(#clip1_8388_5840)">
<path d="M10 20C15.5229 20 20 15.5229 20 10C20 4.47714 15.5229 0 10 0C4.47714 0 0 4.47714 0 10C0 15.5229 4.47714 20 10 20Z" fill="#0098EA"/>
<path d="M13.4143 5.58133H6.58517C5.32952 5.58133 4.53367 6.93579 5.16538 8.03076L9.38009 15.336C9.65513 15.813 10.3444 15.813 10.6194 15.336L14.835 8.03076C15.4658 6.93754 14.67 5.58133 13.4152 5.58133H13.4143ZM9.37667 13.1453L8.45877 11.3688L6.24399 7.40765C6.09788 7.15412 6.27834 6.82922 6.58431 6.82922H9.37581V13.1462L9.37667 13.1453ZM13.7538 7.40679L11.5399 11.3697L10.622 13.1453V6.82837H13.4135C13.7195 6.82837 13.8999 7.15326 13.7538 7.40679Z" fill="white"/>
</g>
</g>
<defs>
<clipPath id="clip0_8388_5840">
<rect width="20" height="20" fill="white"/>
</clipPath>
<clipPath id="clip1_8388_5840">
<rect width="20" height="20" fill="white"/>
</clipPath>
</defs>
</svg>
